M48
; DRILL file {KiCad (6.0.2)} date Sat Mar  5 19:05:08 2022
; FORMAT={-:-/ absolute / metric / decimal}
; #@! TF.CreationDate,2022-03-05T19:05:08-05:00
; #@! TF.GenerationSoftware,Kicad,Pcbnew,(6.0.2)
; #@! TF.FileFunction,MixedPlating,1,2
FMAT,2
METRIC
; #@! TA.AperFunction,Plated,PTH,ViaDrill
T1C0.300
; #@! TA.AperFunction,Plated,PTH,ViaDrill
T2C0.600
; #@! TA.AperFunction,Plated,PTH,ComponentDrill
T3C1.000
; #@! TA.AperFunction,Plated,PTH,ComponentDrill
T4C1.100
; #@! TA.AperFunction,Plated,PTH,ComponentDrill
T5C2.200
%
G90
G05
T1
X2.0Y48.0
X2.0Y43.0
X2.0Y35.0
X2.0Y30.0
X7.0Y78.0
X7.5Y18.2
X9.5Y18.7
X9.8Y8.5
X10.2Y23.0
X10.8Y18.7
X11.9Y13.5
X12.0Y78.0
X12.05Y39.35
X12.3Y18.9
X13.5Y75.58
X13.5Y74.58
X13.5Y73.58
X13.5Y22.7
X13.7Y69.08
X13.7Y68.08
X13.7Y67.08
X13.7Y62.58
X13.7Y61.58
X13.7Y60.58
X13.7Y56.0
X13.7Y55.0
X13.7Y54.0
X13.9Y49.5
X13.9Y48.5
X13.9Y47.5
X13.9Y43.0
X13.9Y42.0
X13.9Y41.0
X14.3Y12.4
X15.0Y34.0
X16.0Y7.2
X16.025Y19.225
X17.0Y78.0
X18.0Y39.35
X18.2Y7.2
X19.7Y75.58
X19.7Y74.58
X19.7Y73.58
X19.9Y69.08
X19.9Y68.08
X19.9Y67.08
X19.9Y62.58
X19.9Y61.58
X19.9Y60.58
X19.9Y56.0
X19.9Y55.0
X19.9Y54.0
X20.1Y49.5
X20.1Y48.5
X20.1Y47.5
X20.1Y43.0
X20.1Y42.0
X20.1Y41.0
X20.4Y7.7
X21.0Y34.0
X22.0Y78.0
X22.3Y20.0
X22.3Y7.7
X23.3Y16.3
X23.3Y15.3
X23.3Y14.3
X23.325Y17.275
X23.35Y18.35
X24.3Y39.35
X26.0Y75.58
X26.0Y74.58
X26.0Y73.58
X26.2Y69.08
X26.2Y68.08
X26.2Y67.08
X26.2Y62.58
X26.2Y61.58
X26.2Y60.58
X26.2Y56.0
X26.2Y55.0
X26.2Y54.0
X26.4Y49.5
X26.4Y48.5
X26.4Y47.5
X26.4Y43.0
X26.4Y42.0
X26.4Y41.0
X27.0Y78.0
X28.0Y34.0
X29.5Y21.7
X29.6Y8.0
X30.4Y39.35
X30.6Y9.0
X31.0Y10.0
X32.0Y78.0
X32.0Y75.58
X32.0Y74.58
X32.0Y73.58
X32.2Y69.08
X32.2Y68.08
X32.2Y67.08
X32.2Y62.58
X32.2Y61.58
X32.2Y60.58
X32.2Y56.0
X32.2Y55.0
X32.2Y54.0
X32.4Y49.5
X32.4Y48.5
X32.4Y47.5
X32.4Y43.0
X32.4Y42.0
X32.4Y41.0
X34.0Y34.0
X34.6Y11.0
X36.45Y39.35
X38.0Y78.0
X38.0Y5.0
X38.1Y75.58
X38.1Y74.58
X38.1Y73.58
X38.3Y69.08
X38.3Y68.08
X38.3Y67.08
X38.3Y62.58
X38.3Y61.58
X38.3Y60.58
X38.3Y56.0
X38.3Y55.0
X38.3Y54.0
X38.5Y49.5
X38.5Y48.5
X38.5Y47.5
X38.5Y43.0
X38.5Y42.0
X38.5Y41.0
X40.0Y34.0
X42.6Y39.4
X43.0Y78.0
X43.0Y5.0
X44.3Y75.58
X44.3Y74.58
X44.3Y73.58
X44.5Y69.08
X44.5Y68.08
X44.5Y67.08
X44.5Y62.58
X44.5Y61.58
X44.5Y60.58
X44.5Y56.0
X44.5Y55.0
X44.5Y54.0
X44.7Y49.5
X44.7Y48.5
X44.7Y47.5
X44.7Y43.0
X44.7Y42.0
X44.7Y41.0
X46.0Y34.0
X48.0Y78.0
X48.0Y5.0
X48.75Y39.4
X50.3Y75.58
X50.3Y74.58
X50.3Y73.58
X50.5Y69.08
X50.5Y68.08
X50.5Y67.08
X50.5Y62.58
X50.5Y61.58
X50.5Y60.58
X50.5Y56.0
X50.5Y55.0
X50.5Y54.0
X50.7Y49.5
X50.7Y48.5
X50.7Y47.5
X50.7Y43.0
X50.7Y42.0
X50.7Y41.0
X52.0Y5.0
X52.65Y12.4
X52.9Y10.0
X53.0Y78.0
X53.8Y25.95
X53.8Y24.5
X53.8Y23.0
X54.75Y39.45
X55.15Y19.95
X55.15Y18.725
X55.15Y17.5
X55.6Y10.3
X55.7Y26.1
X56.4Y19.95
X56.4Y18.725
X56.4Y17.5
X56.5Y75.58
X56.5Y74.58
X56.5Y73.58
X56.7Y69.08
X56.7Y68.08
X56.7Y67.08
X56.7Y62.58
X56.7Y61.58
X56.7Y60.58
X56.7Y56.0
X56.7Y55.0
X56.7Y54.0
X56.9Y49.5
X56.9Y48.5
X56.9Y47.5
X56.9Y43.0
X56.9Y42.0
X56.9Y41.0
X57.0Y5.0
X57.3Y13.1
X57.35Y12.1
X57.5Y25.0
X57.6Y14.3
X57.65Y19.95
X57.65Y18.725
X57.65Y17.5
X58.0Y78.0
X58.55Y24.75
X58.55Y23.75
X58.55Y22.65
X58.7Y7.0
X59.0Y10.95
X59.4Y27.7
X59.4Y25.9
X61.4Y23.0
X61.9Y39.2
X62.0Y5.0
X62.4Y23.0
X63.0Y78.0
X63.0Y54.3
X63.0Y52.1
X63.0Y50.0
X63.0Y48.0
X63.0Y46.0
X63.0Y43.7
X63.0Y41.7
X63.05Y56.45
X63.4Y23.0
X64.4Y23.0
X64.4Y21.3
X64.4Y20.2
X64.4Y19.1
X64.4Y18.0
X64.4Y16.9
X68.0Y19.0
X68.0Y14.0
X68.0Y9.0
T2
X33.8Y19.6
X33.8Y16.6
X34.8Y21.1
X34.8Y18.1
X35.8Y19.6
X35.8Y16.6
X36.8Y21.1
X36.8Y18.1
X37.8Y19.6
X37.8Y16.6
X38.8Y21.1
X38.8Y18.1
X39.8Y19.6
X39.8Y16.6
X40.8Y21.1
X40.8Y18.1
X41.8Y19.6
X41.8Y16.6
T3
X3.0Y26.675
X3.0Y24.135
X3.0Y21.595
X3.0Y19.055
X3.0Y16.515
X3.0Y12.38
X3.0Y9.84
X3.0Y7.3
X8.0Y26.7
X10.54Y26.7
X13.08Y26.7
X15.62Y26.7
X15.985Y5.0
X18.525Y5.0
X20.125Y26.7
X22.665Y26.7
X24.5Y5.0
X25.205Y26.7
X27.04Y5.0
X27.745Y26.7
X29.58Y5.0
X30.285Y26.7
X32.12Y5.0
X34.66Y5.0
T4
X8.23Y3.7
X10.77Y3.7
T5
X3.0Y77.0
X3.0Y3.0
X67.0Y77.0
X67.0Y3.0
T0
M30
