%TF.GenerationSoftware,KiCad,Pcbnew,(6.0.2)*%
%TF.CreationDate,2022-03-05T19:05:13-05:00*%
%TF.ProjectId,LED Driver Prototype V2,4c454420-4472-4697-9665-722050726f74,rev?*%
%TF.SameCoordinates,PX66ff300PY81b3200*%
%TF.FileFunction,Legend,Bot*%
%TF.FilePolarity,Positive*%
%FSLAX46Y46*%
G04 Gerber Fmt 4.6, Leading zero omitted, Abs format (unit mm)*
G04 Created by KiCad (PCBNEW (6.0.2)) date 2022-03-05 19:05:13*
%MOMM*%
%LPD*%
G01*
G04 APERTURE LIST*
%ADD10C,0.150000*%
G04 APERTURE END LIST*
D10*
X64219047Y2647620D02*
X64219047Y1933334D01*
X64266666Y1790477D01*
X64361904Y1695239D01*
X64504761Y1647620D01*
X64600000Y1647620D01*
X63266666Y1647620D02*
X63742857Y1647620D01*
X63742857Y2647620D01*
X62361904Y1742858D02*
X62409523Y1695239D01*
X62552380Y1647620D01*
X62647619Y1647620D01*
X62790476Y1695239D01*
X62885714Y1790477D01*
X62933333Y1885715D01*
X62980952Y2076191D01*
X62980952Y2219048D01*
X62933333Y2409524D01*
X62885714Y2504762D01*
X62790476Y2600000D01*
X62647619Y2647620D01*
X62552380Y2647620D01*
X62409523Y2600000D01*
X62361904Y2552381D01*
X61647619Y2647620D02*
X61647619Y1933334D01*
X61695238Y1790477D01*
X61790476Y1695239D01*
X61933333Y1647620D01*
X62028571Y1647620D01*
X60695238Y1647620D02*
X61171428Y1647620D01*
X61171428Y2647620D01*
X59790476Y1742858D02*
X59838095Y1695239D01*
X59980952Y1647620D01*
X60076190Y1647620D01*
X60219047Y1695239D01*
X60314285Y1790477D01*
X60361904Y1885715D01*
X60409523Y2076191D01*
X60409523Y2219048D01*
X60361904Y2409524D01*
X60314285Y2504762D01*
X60219047Y2600000D01*
X60076190Y2647620D01*
X59980952Y2647620D01*
X59838095Y2600000D01*
X59790476Y2552381D01*
X59076190Y2647620D02*
X59076190Y1933334D01*
X59123809Y1790477D01*
X59219047Y1695239D01*
X59361904Y1647620D01*
X59457142Y1647620D01*
X58123809Y1647620D02*
X58600000Y1647620D01*
X58600000Y2647620D01*
X57219047Y1742858D02*
X57266666Y1695239D01*
X57409523Y1647620D01*
X57504761Y1647620D01*
X57647619Y1695239D01*
X57742857Y1790477D01*
X57790476Y1885715D01*
X57838095Y2076191D01*
X57838095Y2219048D01*
X57790476Y2409524D01*
X57742857Y2504762D01*
X57647619Y2600000D01*
X57504761Y2647620D01*
X57409523Y2647620D01*
X57266666Y2600000D01*
X57219047Y2552381D01*
X56504761Y2647620D02*
X56504761Y1933334D01*
X56552380Y1790477D01*
X56647619Y1695239D01*
X56790476Y1647620D01*
X56885714Y1647620D01*
X55552380Y1647620D02*
X56028571Y1647620D01*
X56028571Y2647620D01*
X54647619Y1742858D02*
X54695238Y1695239D01*
X54838095Y1647620D01*
X54933333Y1647620D01*
X55076190Y1695239D01*
X55171428Y1790477D01*
X55219047Y1885715D01*
X55266666Y2076191D01*
X55266666Y2219048D01*
X55219047Y2409524D01*
X55171428Y2504762D01*
X55076190Y2600000D01*
X54933333Y2647620D01*
X54838095Y2647620D01*
X54695238Y2600000D01*
X54647619Y2552381D01*
M02*
