%TF.GenerationSoftware,KiCad,Pcbnew,(6.0.2)*%
%TF.CreationDate,2022-03-05T19:05:13-05:00*%
%TF.ProjectId,LED Driver Prototype V2,4c454420-4472-4697-9665-722050726f74,rev?*%
%TF.SameCoordinates,PX66ff300PY81b3200*%
%TF.FileFunction,Soldermask,Bot*%
%TF.FilePolarity,Negative*%
%FSLAX46Y46*%
G04 Gerber Fmt 4.6, Leading zero omitted, Abs format (unit mm)*
G04 Created by KiCad (PCBNEW (6.0.2)) date 2022-03-05 19:05:13*
%MOMM*%
%LPD*%
G01*
G04 APERTURE LIST*
%ADD10C,0.150000*%
%ADD11O,1.700000X1.700000*%
%ADD12R,1.700000X1.700000*%
%ADD13C,3.500000*%
%ADD14C,2.100000*%
%ADD15R,2.100000X2.100000*%
%ADD16C,0.600000*%
%ADD17C,1.000000*%
G04 APERTURE END LIST*
D10*
X32750000Y16100000D02*
X45000000Y16100000D01*
X45000000Y16100000D02*
X45000000Y21550000D01*
X45000000Y21550000D02*
X32750000Y21550000D01*
X32750000Y21550000D02*
X32750000Y16100000D01*
G36*
X32750000Y16100000D02*
G01*
X45000000Y16100000D01*
X45000000Y21550000D01*
X32750000Y21550000D01*
X32750000Y16100000D01*
G37*
X53350000Y15800000D02*
X51300000Y18100000D01*
X51300000Y18100000D02*
X47000000Y18100000D01*
X47000000Y18100000D02*
X45000000Y16100000D01*
X45000000Y16100000D02*
X45000000Y21550000D01*
X45000000Y21550000D02*
X47000000Y19500000D01*
X47000000Y19500000D02*
X51300000Y19500000D01*
X51300000Y19500000D02*
X53350000Y21550000D01*
X53350000Y21550000D02*
X53350000Y15800000D01*
G36*
X53350000Y15800000D02*
G01*
X51300000Y18100000D01*
X47000000Y18100000D01*
X45000000Y16100000D01*
X45000000Y21550000D01*
X47000000Y19500000D01*
X51300000Y19500000D01*
X53350000Y21550000D01*
X53350000Y15800000D01*
G37*
X53350000Y15800000D02*
X51300000Y18100000D01*
X47000000Y18100000D01*
X45000000Y16100000D01*
X45000000Y21550000D01*
X47000000Y19500000D01*
X51300000Y19500000D01*
X53350000Y21550000D01*
X53350000Y15800000D01*
X53350000Y15800000D02*
X59500000Y15800000D01*
X59500000Y15800000D02*
X59500000Y21550000D01*
X59500000Y21550000D02*
X53350000Y21550000D01*
X53350000Y21550000D02*
X53350000Y15800000D01*
G36*
X53350000Y15800000D02*
G01*
X59500000Y15800000D01*
X59500000Y21550000D01*
X53350000Y21550000D01*
X53350000Y15800000D01*
G37*
D11*
%TO.C,J6*%
X34660000Y5000000D03*
X32120000Y5000000D03*
X29580000Y5000000D03*
X27040000Y5000000D03*
D12*
X24500000Y5000000D03*
%TD*%
D11*
%TO.C,J7*%
X3000000Y12380000D03*
X3000000Y9840000D03*
D12*
X3000000Y7300000D03*
%TD*%
D11*
%TO.C,J2*%
X15985000Y5000000D03*
D12*
X18525000Y5000000D03*
%TD*%
D13*
%TO.C,H2*%
X67000000Y77000000D03*
%TD*%
D14*
%TO.C,J1*%
X10770000Y3700000D03*
D15*
X8230000Y3700000D03*
%TD*%
D11*
%TO.C,J5*%
X30285000Y26700000D03*
X27745000Y26700000D03*
X25205000Y26700000D03*
X22665000Y26700000D03*
D12*
X20125000Y26700000D03*
%TD*%
D11*
%TO.C,J3*%
X15620000Y26700000D03*
X13080000Y26700000D03*
X10540000Y26700000D03*
D12*
X8000000Y26700000D03*
%TD*%
D13*
%TO.C,H3*%
X3000000Y3000000D03*
%TD*%
D11*
%TO.C,J4*%
X3000000Y16515000D03*
X3000000Y19055000D03*
X3000000Y21595000D03*
X3000000Y24135000D03*
D12*
X3000000Y26675000D03*
%TD*%
D13*
%TO.C,H4*%
X67000000Y3000000D03*
%TD*%
%TO.C,H1*%
X3000000Y77000000D03*
%TD*%
D16*
X16024999Y19224999D03*
D17*
X36800000Y21100000D03*
X38800000Y21100000D03*
D16*
X38000000Y5000000D03*
X56400000Y19950000D03*
X22000000Y78000000D03*
X12300000Y18900000D03*
X10200000Y23000000D03*
X38000000Y78000000D03*
D17*
X38800000Y18100000D03*
D16*
X29500000Y21700000D03*
X15000000Y34000000D03*
X57650000Y19950000D03*
X20400000Y7700000D03*
X7500000Y18200000D03*
D17*
X33800000Y19600000D03*
D16*
X68000000Y19000000D03*
X59400000Y27700000D03*
X57650000Y18725000D03*
X14300000Y12400000D03*
X7000000Y78000000D03*
D17*
X33800000Y16600000D03*
D16*
X13500000Y22700000D03*
D17*
X40800000Y21100000D03*
D16*
X52000000Y5000000D03*
X68000000Y9000000D03*
D17*
X41800000Y19600000D03*
X34800000Y21100000D03*
D16*
X59000000Y10950000D03*
D17*
X40800000Y18100000D03*
D16*
X46000000Y34000000D03*
X27000000Y78000000D03*
X40000000Y34000000D03*
X63000000Y78000000D03*
X11900000Y13500000D03*
D17*
X37800000Y16600000D03*
X35800000Y19600000D03*
X37800000Y19600000D03*
D16*
X2000000Y35000000D03*
X48000000Y78000000D03*
X48000000Y5000000D03*
X32000000Y78000000D03*
X2000000Y30000000D03*
X28000000Y34000000D03*
X34000000Y34000000D03*
D17*
X36800000Y18100000D03*
D16*
X43000000Y5000000D03*
D17*
X39800000Y19600000D03*
D16*
X56400000Y17500000D03*
X55150000Y18725000D03*
X2000000Y48000000D03*
X12000000Y78000000D03*
D17*
X39800000Y16600000D03*
D16*
X22300000Y7700000D03*
X21000000Y34000000D03*
D17*
X41800000Y16600000D03*
D16*
X56400000Y18725000D03*
X43000000Y78000000D03*
X68000000Y14000000D03*
X57650000Y17500000D03*
X58000000Y78000000D03*
X17000000Y78000000D03*
D17*
X34800000Y18100000D03*
D16*
X55150000Y19950000D03*
X57000000Y5000000D03*
X52650000Y12400000D03*
X53000000Y78000000D03*
D17*
X35800000Y16600000D03*
D16*
X62000000Y5000000D03*
X9800000Y8500000D03*
X55150000Y17500000D03*
X2000000Y43000000D03*
X58700000Y7000000D03*
X18200000Y7200000D03*
X16000000Y7200000D03*
X59400000Y25900000D03*
X10800000Y18700000D03*
X26000000Y74580000D03*
X19700000Y74580000D03*
X56500000Y74580000D03*
X13500000Y74580000D03*
X50300000Y74580000D03*
X38100000Y74580000D03*
X44300000Y74580000D03*
X32000000Y74580000D03*
X32000000Y75580000D03*
X50300000Y75580000D03*
X26000000Y75580000D03*
X19700000Y75580000D03*
X56500000Y75580000D03*
X13500000Y75580000D03*
X38100000Y75580000D03*
X44300000Y75580000D03*
X22300000Y20000000D03*
X50300000Y73580000D03*
X32000000Y73580000D03*
X19700000Y73580000D03*
X26000000Y73580000D03*
X44300000Y73580000D03*
X38100000Y73580000D03*
X13500000Y73580000D03*
X56500000Y73580000D03*
X63000000Y54300000D03*
X64400000Y18000000D03*
X19900000Y55000000D03*
X44500000Y55000000D03*
X32200000Y55000000D03*
X26200000Y55000000D03*
X56700000Y55000000D03*
X13700000Y55000000D03*
X50500000Y55000000D03*
X38300000Y55000000D03*
X63050000Y56450000D03*
X64400000Y16900000D03*
X50500000Y56000000D03*
X13700000Y56000000D03*
X32200000Y56000000D03*
X38300000Y56000000D03*
X44500000Y56000000D03*
X56700000Y56000000D03*
X26200000Y56000000D03*
X19900000Y56000000D03*
X32200000Y60580000D03*
X56700000Y60580000D03*
X13700000Y60580000D03*
X38300000Y60580000D03*
X50500000Y60580000D03*
X26200000Y60580000D03*
X19900000Y60580000D03*
X44500000Y60580000D03*
X38300000Y61580000D03*
X19900000Y61580000D03*
X44500000Y61580000D03*
X32200000Y61580000D03*
X26200000Y61580000D03*
X13700000Y61580000D03*
X56700000Y61580000D03*
X50500000Y61580000D03*
X56700000Y62580000D03*
X38300000Y62580000D03*
X19900000Y62580000D03*
X44500000Y62580000D03*
X26200000Y62580000D03*
X32200000Y62580000D03*
X13700000Y62580000D03*
X50500000Y62580000D03*
X13700000Y69080000D03*
X50500000Y69080000D03*
X32200000Y69080000D03*
X19900000Y69080000D03*
X44500000Y69080000D03*
X38300000Y69080000D03*
X26200000Y69080000D03*
X56700000Y69080000D03*
X13700000Y68080000D03*
X19900000Y68080000D03*
X32200000Y68080000D03*
X26200000Y68080000D03*
X38300000Y68080000D03*
X56700000Y68080000D03*
X44500000Y68080000D03*
X50500000Y68080000D03*
X38300000Y67080000D03*
X32200000Y67080000D03*
X44500000Y67080000D03*
X26200000Y67080000D03*
X13700000Y67080000D03*
X50500000Y67080000D03*
X19900000Y67080000D03*
X56700000Y67080000D03*
X20100000Y41000000D03*
X38500000Y41000000D03*
X26400000Y41000000D03*
X44700000Y41000000D03*
X56900000Y41000000D03*
X13900000Y41000000D03*
X32400000Y41000000D03*
X50700000Y41000000D03*
X61900000Y39200000D03*
X61400000Y23000000D03*
X44700000Y42000000D03*
X56900000Y42000000D03*
X20100000Y42000000D03*
X50700000Y42000000D03*
X38500000Y42000000D03*
X32400000Y42000000D03*
X13900000Y42000000D03*
X26400000Y42000000D03*
X63000000Y41700000D03*
X62400000Y23000000D03*
X20100000Y43000000D03*
X13900000Y43000000D03*
X56900000Y43000000D03*
X26400000Y43000000D03*
X50700000Y43000000D03*
X32400000Y43000000D03*
X44700000Y43000000D03*
X38500000Y43000000D03*
X63400000Y23000000D03*
X63000000Y43700000D03*
X13900000Y47500000D03*
X26400000Y47500000D03*
X44700000Y47500000D03*
X38500000Y47500000D03*
X56900000Y47500000D03*
X20100000Y47500000D03*
X32400000Y47500000D03*
X50700000Y47500000D03*
X64400000Y23000000D03*
X63000000Y46000000D03*
X26400000Y48500000D03*
X50700000Y48500000D03*
X20100000Y48500000D03*
X56900000Y48500000D03*
X44700000Y48500000D03*
X13900000Y48500000D03*
X38500000Y48500000D03*
X32400000Y48500000D03*
X63000000Y48000000D03*
X64400000Y21300000D03*
X13900000Y49500000D03*
X32400000Y49500000D03*
X56900000Y49500000D03*
X20100000Y49500000D03*
X38500000Y49500000D03*
X50700000Y49500000D03*
X26400000Y49500000D03*
X44700000Y49500000D03*
X63000000Y50000000D03*
X64400000Y20200000D03*
X19900000Y54000000D03*
X56700000Y54000000D03*
X32200000Y54000000D03*
X50500000Y54000000D03*
X38300000Y54000000D03*
X13700000Y54000000D03*
X26200000Y54000000D03*
X44500000Y54000000D03*
X63000000Y52100000D03*
X64400000Y19100000D03*
X30600000Y9000000D03*
X23300000Y15300000D03*
X57300000Y13100000D03*
X23350000Y18350000D03*
X57350000Y12100000D03*
X29600000Y8000000D03*
X55600000Y10300000D03*
X23300000Y14300000D03*
X57600000Y14300000D03*
X23325002Y17274998D03*
X34600000Y11000000D03*
X9500000Y18700000D03*
X31000000Y10000000D03*
X52900000Y10000000D03*
X23300000Y16300000D03*
X54750000Y39450000D03*
X55700000Y26100000D03*
X48750000Y39400000D03*
X57500000Y25000000D03*
X53800000Y25950000D03*
X42600000Y39400000D03*
X58550000Y24750000D03*
X36450000Y39350000D03*
X30400000Y39350000D03*
X53800000Y24500000D03*
X58550000Y23750000D03*
X24300000Y39350000D03*
X53800000Y23000000D03*
X18000000Y39350000D03*
X12050000Y39350000D03*
X58550000Y22650000D03*
M02*
